<svg xmlns="http://www.w3.org/2000/svg" width="1440" height="900" viewBox="0 0 1440 900" fill="none">
  <defs>
    <linearGradient id="bg" x1="80" y1="40" x2="1320" y2="860" gradientUnits="userSpaceOnUse">
      <stop stop-color="#FFF8F2"/>
      <stop offset="0.48" stop-color="#F5F2FF"/>
      <stop offset="1" stop-color="#ECF7FF"/>
    </linearGradient>
    <linearGradient id="line" x1="140" y1="120" x2="1300" y2="790" gradientUnits="userSpaceOnUse">
      <stop stop-color="#91B4FF"/>
      <stop offset="1" stop-color="#83E1EC"/>
    </linearGradient>
    <filter id="shadow" x="38" y="34" width="1364" height="842" filterUnits="userSpaceOnUse" color-interpolation-filters="sRGB">
      <feDropShadow dx="0" dy="42" stdDeviation="58" flood-color="#4B5E9D" flood-opacity="0.17"/>
    </filter>
  </defs>

  <rect width="1440" height="900" rx="58" fill="url(#bg)"/>
  <circle cx="214" cy="146" r="156" fill="#FFE1D3" opacity="0.56"/>
  <circle cx="1222" cy="182" r="188" fill="#9AB8FF" opacity="0.3"/>
  <circle cx="1132" cy="754" r="178" fill="#83E1EC" opacity="0.2"/>

  <g filter="url(#shadow)">
    <rect x="82" y="70" width="1276" height="740" rx="46" fill="white" fill-opacity="0.72" stroke="white" stroke-width="2"/>
    <rect x="82" y="70" width="1276" height="82" rx="46" fill="white" fill-opacity="0.58"/>
    <rect x="82" y="118" width="1276" height="34" fill="white" fill-opacity="0.34"/>
    <circle cx="132" cy="112" r="10" fill="#FF756C"/>
    <circle cx="166" cy="112" r="10" fill="#FFC44D"/>
    <circle cx="200" cy="112" r="10" fill="#42D36B"/>
    <rect x="1068" y="98" width="216" height="34" rx="17" fill="#EEF3FF" fill-opacity="0.72"/>
    <rect x="1092" y="109" width="66" height="12" rx="6" fill="#8EA8FF" fill-opacity="0.54"/>
    <rect x="1172" y="109" width="72" height="12" rx="6" fill="#CBD5E1" fill-opacity="0.64"/>

    <rect x="126" y="188" width="310" height="560" rx="30" fill="#F7F9FF" fill-opacity="0.82" stroke="white" stroke-width="1.5"/>
    <rect x="166" y="228" width="134" height="20" rx="10" fill="#111827" fill-opacity="0.2"/>
    <rect x="166" y="284" width="214" height="38" rx="19" fill="#E9EEFF"/>
    <rect x="166" y="344" width="224" height="18" rx="9" fill="#DDE4F5"/>
    <rect x="190" y="384" width="176" height="16" rx="8" fill="#DDE4F5" opacity="0.86"/>
    <rect x="190" y="424" width="198" height="16" rx="8" fill="#DDE4F5" opacity="0.72"/>
    <rect x="166" y="490" width="214" height="18" rx="9" fill="#DDE4F5"/>
    <rect x="190" y="530" width="154" height="16" rx="8" fill="#DDE4F5" opacity="0.78"/>
    <rect x="190" y="570" width="188" height="16" rx="8" fill="#DDE4F5" opacity="0.62"/>
    <rect x="166" y="652" width="118" height="18" rx="9" fill="#DDE4F5" opacity="0.84"/>

    <rect x="486" y="188" width="800" height="560" rx="34" fill="white" fill-opacity="0.58" stroke="url(#line)" stroke-opacity="0.34" stroke-width="2"/>
    <rect x="546" y="248" width="420" height="42" rx="21" fill="#111827" fill-opacity="0.16"/>
    <rect x="546" y="330" width="648" height="20" rx="10" fill="#CBD5E1" opacity="0.74"/>
    <rect x="546" y="374" width="586" height="20" rx="10" fill="#CBD5E1" opacity="0.58"/>
    <rect x="546" y="418" width="640" height="20" rx="10" fill="#CBD5E1" opacity="0.48"/>
    <rect x="546" y="496" width="304" height="150" rx="26" fill="#F5F8FF" stroke="white"/>
    <rect x="890" y="496" width="304" height="150" rx="26" fill="#FFF8F4" stroke="white"/>
    <rect x="590" y="548" width="170" height="18" rx="9" fill="#8EA8FF" opacity="0.5"/>
    <rect x="590" y="590" width="212" height="16" rx="8" fill="#CBD5E1" opacity="0.54"/>
    <rect x="934" y="548" width="180" height="18" rx="9" fill="#83E1EC" opacity="0.52"/>
    <rect x="934" y="590" width="204" height="16" rx="8" fill="#CBD5E1" opacity="0.54"/>
    <rect x="546" y="690" width="508" height="18" rx="9" fill="#CBD5E1" opacity="0.46"/>
  </g>
</svg>
