<svg xmlns="http://www.w3.org/2000/svg" width="1040" height="720" viewBox="0 0 1040 720" fill="none">
  <defs>
    <linearGradient id="bg" x1="56" y1="72" x2="994" y2="692" gradientUnits="userSpaceOnUse">
      <stop stop-color="#FFF4ED"/>
      <stop offset="0.45" stop-color="#F4F2FF"/>
      <stop offset="1" stop-color="#DDEBFF"/>
    </linearGradient>
    <linearGradient id="paper" x1="176" y1="108" x2="824" y2="548" gradientUnits="userSpaceOnUse">
      <stop stop-color="#FFFFFF" stop-opacity="0.9"/>
      <stop offset="0.5" stop-color="#F7F8FF" stop-opacity="0.66"/>
      <stop offset="1" stop-color="#CFE0FF" stop-opacity="0.48"/>
    </linearGradient>
    <linearGradient id="window" x1="184" y1="122" x2="846" y2="640" gradientUnits="userSpaceOnUse">
      <stop stop-color="#FFFFFF" stop-opacity="0.84"/>
      <stop offset="1" stop-color="#F5F8FF" stop-opacity="0.72"/>
    </linearGradient>
    <linearGradient id="accent" x1="352" y1="188" x2="844" y2="524" gradientUnits="userSpaceOnUse">
      <stop stop-color="#8FB5FF"/>
      <stop offset="0.5" stop-color="#7D74FF"/>
      <stop offset="1" stop-color="#8BE7F0"/>
    </linearGradient>
    <filter id="softShadow" x="34" y="38" width="972" height="646" filterUnits="userSpaceOnUse" color-interpolation-filters="sRGB">
      <feDropShadow dx="0" dy="42" stdDeviation="54" flood-color="#5F7BFF" flood-opacity="0.18"/>
    </filter>
    <filter id="paperShadow" x="48" y="52" width="944" height="604" filterUnits="userSpaceOnUse" color-interpolation-filters="sRGB">
      <feDropShadow dx="0" dy="28" stdDeviation="34" flood-color="#8FB5FF" flood-opacity="0.22"/>
    </filter>
    <radialGradient id="glowA" cx="0" cy="0" r="1" gradientUnits="userSpaceOnUse" gradientTransform="translate(220 146) rotate(48) scale(252 182)">
      <stop stop-color="#FFE4D6" stop-opacity="0.88"/>
      <stop offset="1" stop-color="#FFE4D6" stop-opacity="0"/>
    </radialGradient>
    <radialGradient id="glowB" cx="0" cy="0" r="1" gradientUnits="userSpaceOnUse" gradientTransform="translate(850 582) rotate(135) scale(252 190)">
      <stop stop-color="#8BE7F0" stop-opacity="0.42"/>
      <stop offset="1" stop-color="#8BE7F0" stop-opacity="0"/>
    </radialGradient>
  </defs>

  <rect width="1040" height="720" rx="56" fill="url(#bg)"/>
  <rect width="1040" height="720" rx="56" fill="url(#glowA)"/>
  <rect width="1040" height="720" rx="56" fill="url(#glowB)"/>

  <g opacity="0.36">
    <path d="M76 474C252 378 366 232 508 72" stroke="#FFFFFF" stroke-width="1.4"/>
    <path d="M124 604C326 472 484 312 676 88" stroke="#FFFFFF" stroke-width="1"/>
    <path d="M558 674C684 498 808 364 970 226" stroke="#FFFFFF" stroke-width="1"/>
  </g>

  <g filter="url(#paperShadow)" opacity="0.96">
    <path d="M134 394L516 178C530 170 548 168 564 172L908 250C924 254 928 274 914 284L516 560C502 570 482 574 464 568L144 464C112 454 106 410 134 394Z" fill="url(#paper)" stroke="#FFFFFF" stroke-width="3"/>
    <path d="M164 464L546 248C560 240 578 238 594 242L886 308C902 312 906 330 892 340L526 610C512 620 492 624 474 618L174 532C142 522 136 480 164 464Z" fill="#CFE0FF" fill-opacity="0.22" stroke="#FFFFFF" stroke-opacity="0.76" stroke-width="2"/>
  </g>

  <g filter="url(#softShadow)">
    <rect x="164" y="110" width="712" height="476" rx="34" fill="url(#window)" stroke="#FFFFFF" stroke-opacity="0.8" stroke-width="1.5"/>
    <rect x="164" y="110" width="712" height="62" rx="34" fill="#FFFFFF" fill-opacity="0.52"/>
    <rect x="164" y="148" width="712" height="24" fill="#FFFFFF" fill-opacity="0.34"/>
    <circle cx="204" cy="140" r="8" fill="#FF756C"/>
    <circle cx="232" cy="140" r="8" fill="#FFC44D"/>
    <circle cx="260" cy="140" r="8" fill="#42D36B"/>

    <rect x="202" y="204" width="190" height="330" rx="24" fill="#FFFFFF" fill-opacity="0.56" stroke="#FFFFFF" stroke-opacity="0.76"/>
    <text x="230" y="250" fill="#111827" font-family="-apple-system, BlinkMacSystemFont, Segoe UI, sans-serif" font-size="22" font-weight="800">Docs</text>
    <text x="230" y="278" fill="#6B7280" font-family="-apple-system, BlinkMacSystemFont, Segoe UI, sans-serif" font-size="13" font-weight="600">12 Markdown files</text>
    <rect x="222" y="316" width="140" height="34" rx="12" fill="#EEF3FF"/>
    <rect x="222" y="316" width="5" height="34" rx="2.5" fill="url(#accent)"/>
    <text x="244" y="338" fill="#5F7BFF" font-family="-apple-system, BlinkMacSystemFont, Segoe UI, sans-serif" font-size="13" font-weight="700">README.md</text>
    <text x="244" y="382" fill="#475569" font-family="-apple-system, BlinkMacSystemFont, Segoe UI, sans-serif" font-size="13" font-weight="600">concept.md</text>
    <text x="244" y="422" fill="#475569" font-family="-apple-system, BlinkMacSystemFont, Segoe UI, sans-serif" font-size="13" font-weight="600">architecture.md</text>
    <text x="244" y="462" fill="#475569" font-family="-apple-system, BlinkMacSystemFont, Segoe UI, sans-serif" font-size="13" font-weight="600">release.md</text>

    <rect x="430" y="204" width="400" height="330" rx="26" fill="#FFFFFF" fill-opacity="0.72" stroke="#FFFFFF"/>
    <text x="468" y="264" fill="#111827" font-family="-apple-system, BlinkMacSystemFont, Segoe UI, sans-serif" font-size="34" font-weight="850" letter-spacing="-1.4">Skim the stack</text>
    <rect x="468" y="292" width="292" height="3" rx="1.5" fill="#E7ECF8"/>
    <rect x="468" y="334" width="8" height="82" rx="4" fill="url(#accent)"/>
    <text x="496" y="358" fill="#64748B" font-family="-apple-system, BlinkMacSystemFont, Segoe UI, sans-serif" font-size="17" font-weight="650">Open a folder, skim the tree,</text>
    <text x="496" y="388" fill="#64748B" font-family="-apple-system, BlinkMacSystemFont, Segoe UI, sans-serif" font-size="17" font-weight="650">and stay in reading mode.</text>
    <rect x="468" y="456" width="178" height="18" rx="9" fill="#5F7BFF" fill-opacity="0.9"/>
    <rect x="468" y="492" width="282" height="14" rx="7" fill="#DCE5F6"/>
  </g>

  <g opacity="0.92">
    <rect x="646" y="94" width="178" height="50" rx="25" fill="#FFFFFF" fill-opacity="0.66" stroke="#FFFFFF"/>
    <circle cx="674" cy="119" r="8" fill="#8BE7F0"/>
    <text x="694" y="125" fill="#334155" font-family="-apple-system, BlinkMacSystemFont, Segoe UI, sans-serif" font-size="14" font-weight="750">Read-only</text>
    <rect x="104" y="548" width="214" height="54" rx="27" fill="#FFFFFF" fill-opacity="0.62" stroke="#FFFFFF"/>
    <circle cx="134" cy="575" r="8" fill="#5F7BFF"/>
    <text x="156" y="581" fill="#334155" font-family="-apple-system, BlinkMacSystemFont, Segoe UI, sans-serif" font-size="14" font-weight="750">Folder-bound</text>
  </g>
</svg>
